- 
http://www.Speed.Cd      fast  and The Hottest Private Tracker on the net

(((--Submit for invite!!--)))

Please Seed back to make the speed Faster!!!

------------------nfo--------------------------
-                                             
                               
                                 
                                      
                                      
                                       
    CoaX!&lt;CPH&gt;                         
                               
                         
                            
          
    Team FiCO &lt;Final Coalition&gt; 2k8 Presents:    
    

Richard.Jeni.A.Big.Steaming.Pile.of.Me.2005.DVDRip.XviD-FiCO 
http://www.imdb.com/title/tt0448100/
Subtitles: None
Date: 2011.12

Director: Steven J. Santos
Genre: Standup Comedy
Plot: Cutting-edge comic and actor Richard Jeni stars in his first HBO 
special in over seven years - an all-new hour of off-the-wall 
characterizations and humor taped before a live audience at the Irvine 
Barclay Theatre in Irvine, California. Among the topics Jeni will expore: 
terrorism, political correctness, religion, France, the U.S. obesity 
epidemic, the drug war, the Iraq war, the battle of the sexes, the 
effects of PMS, internet porn, Martha Stewart, Michael Jackson, 
circumcision (why?), strippers (and why men like them), gay marriage, 
liberals vs conservatives, men and women driving together, illegal 
immigration, and more.

Stats:
General
Format                           : AVI
Format/Info                      : Audio Video Interleave
File size                        : 696 MiB
Duration                         : 59mn 32s
Overall bit rate                 : 1 634 Kbps
Writing application              : VirtualDubMod 1.5.10.2 (build 2542/release)
Writing library                  : VirtualDubMod build 2542/release

Video
ID                               : 0
Format                           : MPEG-4 Visual
Format profile                   : Advanced Simple@L5
Format settings, BVOP            : Yes
Format settings, QPel            : No
Format settings, GMC             : No warppoints
Format settings, Matrix          : Default (H.263)
Codec ID                         : XVID
Codec ID/Hint                    : XviD
Duration                         : 59mn 32s
Bit rate                         : 1 430 Kbps
Width                            : 608 pixels
Height                           : 448 pixels
Display aspect ratio             : 4:3
Frame rate                       : 29.970 fps
Resolution                       : 8 bits
Colorimetry                      : 4:2:0
Scan type                        : Progressive
Bits/(Pixel*Frame)               : 0.175
Stream size                      : 609 MiB (88%)
Writing library                  : XviD 61

Audio
ID                               : 1
Format                           : AC-3
Format/Info                      : Audio Coding 3
Format_Settings_ModeExtension    : CM (complete main)
Codec ID                         : 2000
Duration                         : 59mn 32s
Bit rate mode                    : Constant
Bit rate                         : 192 Kbps
Channel(s)                       : 2 channels
Channel positions                : Front: L R
Sampling rate                    : 48.0 KHz
Stream size                      : 81.8 MiB (12%)
Alignment                        : Split accross interleaves
Interleave, duration             : 33 ms (1.00 video frame)
Interleave, preload duration     : 500 ms




Release notes:
enjoy!


                                                                     
                                                             
                                                               
                                                               
                       
      
              Greetz from Team FiCO:               
              
                                                             
                                                             
           BLooDWeiSeR,CULTXviD,SiCK,DoNE,LAP,TH30R1STS              
                                                                             
               WinBeta, DvF, WASTE, BERC, KALEVALA, Jiggly                   
                                                                             
                                                             
                                       
                             
                      
                  
           
            
                    
                  
                
                            
                                        
                                        
                                            
                                                    
                                                              
                      you know where to find us...                     
                        
   NFO By: CoaXCable/CoolPHat &lt;#CPH&gt;